<mxfile host="Electron" modified="2024-02-14T05:41:04.355Z" agent="Mozilla/5.0 (Macintosh; Intel Mac OS X 10_15_7) AppleWebKit/537.36 (KHTML, like Gecko) draw.io/21.6.8 Chrome/114.0.5735.289 Electron/25.5.0 Safari/537.36" etag="QdcALRs50fueHGb5hJSa" version="21.6.8" type="device">
  <diagram id="C5RBs43oDa-KdzZeNtuy" name="Page-1">
    <mxGraphModel dx="1434" dy="854" grid="1" gridSize="10" guides="1" tooltips="1" connect="1" arrows="1" fold="1" page="1" pageScale="1" pageWidth="827" pageHeight="1169" math="0" shadow="0">
      <root>
        <mxCell id="WIyWlLk6GJQsqaUBKTNV-0" />
        <mxCell id="WIyWlLk6GJQsqaUBKTNV-1" parent="WIyWlLk6GJQsqaUBKTNV-0" />
        <mxCell id="L9y2QFEIrlvMuw7K1tbd-21" value="12v Power Supplied to BMU" style="edgeStyle=orthogonalEdgeStyle;rounded=0;orthogonalLoop=1;jettySize=auto;html=1;exitX=0.5;exitY=1;exitDx=0;exitDy=0;exitPerimeter=0;entryX=0.5;entryY=0;entryDx=0;entryDy=0;fontStyle=1;fontColor=#FF3333;fontSize=14;" parent="WIyWlLk6GJQsqaUBKTNV-1" source="L9y2QFEIrlvMuw7K1tbd-0" target="L9y2QFEIrlvMuw7K1tbd-14" edge="1">
          <mxGeometry relative="1" as="geometry">
            <mxPoint as="offset" />
          </mxGeometry>
        </mxCell>
        <mxCell id="L9y2QFEIrlvMuw7K1tbd-0" value="OFF" style="strokeWidth=2;html=1;shape=mxgraph.flowchart.start_2;whiteSpace=wrap;fillStyle=solid;labelBackgroundColor=none;fillColor=#000000;fontColor=#FFFFFF;" parent="WIyWlLk6GJQsqaUBKTNV-1" vertex="1">
          <mxGeometry x="325" y="1" width="70" height="70" as="geometry" />
        </mxCell>
        <mxCell id="L9y2QFEIrlvMuw7K1tbd-2" value="BMU - IDLE STATE&lt;br&gt;&lt;br&gt;Pack is receiving 0x505 at &amp;gt; 5hz with&amp;nbsp;data_u16[0] set to:&lt;br&gt;0x0 (off) or 0x0010 (accessories)&lt;span style=&quot;font-size: medium; text-align: start;&quot;&gt;&lt;/span&gt;" style="swimlane;whiteSpace=wrap;html=1;rounded=1;labelBackgroundColor=none;verticalAlign=top;fontStyle=0" parent="WIyWlLk6GJQsqaUBKTNV-1" vertex="1">
          <mxGeometry x="150" y="211" width="420" height="70" as="geometry">
            <mxRectangle x="170" y="280" width="110" height="30" as="alternateBounds" />
          </mxGeometry>
        </mxCell>
        <mxCell id="L9y2QFEIrlvMuw7K1tbd-9" value="After automatic delay to stabilise current completes" style="edgeStyle=orthogonalEdgeStyle;rounded=0;orthogonalLoop=1;jettySize=auto;html=1;fontStyle=1;fontColor=#FF3333;fontSize=14;" parent="WIyWlLk6GJQsqaUBKTNV-1" edge="1">
          <mxGeometry x="-0.2222" relative="1" as="geometry">
            <mxPoint x="360" y="460" as="sourcePoint" />
            <mxPoint x="360" y="501" as="targetPoint" />
            <mxPoint as="offset" />
          </mxGeometry>
        </mxCell>
        <mxCell id="L9y2QFEIrlvMuw7K1tbd-4" value="BMU - ENABLE PACK STATE&lt;br&gt;&lt;br&gt;Contactor 1 is switched on, to connect the Pack- connection to the vehicle.&amp;nbsp; After a short time to allow the in rush current from the contactor switching to subside on the 12V supply, the BMS transitions to the Measure state.&lt;span style=&quot;font-size: medium; text-align: start;&quot;&gt;&lt;/span&gt;&lt;br&gt;&lt;span style=&quot;font-size: medium; text-align: start;&quot;&gt;&lt;/span&gt;" style="swimlane;whiteSpace=wrap;html=1;rounded=1;labelBackgroundColor=none;verticalAlign=top;fontStyle=0" parent="WIyWlLk6GJQsqaUBKTNV-1" vertex="1">
          <mxGeometry x="150" y="365" width="420" height="93" as="geometry">
            <mxRectangle x="170" y="280" width="110" height="30" as="alternateBounds" />
          </mxGeometry>
        </mxCell>
        <mxCell id="L9y2QFEIrlvMuw7K1tbd-13" value="Pre-charge has completed successfully&lt;br style=&quot;font-size: 14px;&quot;&gt;Automatic transition occurs to Run State" style="edgeStyle=orthogonalEdgeStyle;rounded=0;orthogonalLoop=1;jettySize=auto;html=1;exitX=0.5;exitY=1;exitDx=0;exitDy=0;entryX=0.5;entryY=0;entryDx=0;entryDy=0;fontStyle=1;fontColor=#FF3333;fontSize=14;" parent="WIyWlLk6GJQsqaUBKTNV-1" source="L9y2QFEIrlvMuw7K1tbd-6" target="L9y2QFEIrlvMuw7K1tbd-8" edge="1">
          <mxGeometry relative="1" as="geometry" />
        </mxCell>
        <mxCell id="L9y2QFEIrlvMuw7K1tbd-8" value="BMU - RUN STATE&lt;br&gt;&lt;p class=&quot;p1&quot;&gt;&lt;span class=&quot;s1&quot;&gt;Contactor 2 is also switched on, to directly connect the Pack+ connection to the load.&lt;span class=&quot;Apple-converted-space&quot;&gt;&amp;nbsp; &lt;/span&gt;The relay and fan outputs are switched on.&lt;span class=&quot;Apple-converted-space&quot;&gt;&amp;nbsp; &lt;/span&gt;If the ignition key is switched away from the run position (back to accessories) or the fuel door is closed, then the BMS transitions to the Idle state.&lt;/span&gt;&lt;/p&gt;&lt;br&gt;" style="swimlane;whiteSpace=wrap;html=1;rounded=1;labelBackgroundColor=none;verticalAlign=top;fontStyle=0" parent="WIyWlLk6GJQsqaUBKTNV-1" vertex="1">
          <mxGeometry x="150" y="860" width="420" height="98" as="geometry">
            <mxRectangle x="170" y="280" width="110" height="30" as="alternateBounds" />
          </mxGeometry>
        </mxCell>
        <mxCell id="L9y2QFEIrlvMuw7K1tbd-14" value="BMU - ERROR STATE&lt;br&gt;&lt;br&gt;No 0x505 is being received or a transition has failed&lt;br&gt;&lt;span style=&quot;font-size: medium; text-align: start;&quot;&gt;&lt;/span&gt;" style="swimlane;whiteSpace=wrap;html=1;rounded=1;labelBackgroundColor=none;verticalAlign=top;fontStyle=0" parent="WIyWlLk6GJQsqaUBKTNV-1" vertex="1">
          <mxGeometry x="150" y="110" width="420" height="60" as="geometry">
            <mxRectangle x="170" y="280" width="110" height="30" as="alternateBounds" />
          </mxGeometry>
        </mxCell>
        <mxCell id="L9y2QFEIrlvMuw7K1tbd-15" value="" style="endArrow=classic;html=1;rounded=0;entryX=0.5;entryY=0;entryDx=0;entryDy=0;exitX=0.5;exitY=1;exitDx=0;exitDy=0;" parent="WIyWlLk6GJQsqaUBKTNV-1" source="L9y2QFEIrlvMuw7K1tbd-2" target="L9y2QFEIrlvMuw7K1tbd-4" edge="1">
          <mxGeometry width="50" height="50" relative="1" as="geometry">
            <mxPoint x="400" y="261" as="sourcePoint" />
            <mxPoint x="450" y="201" as="targetPoint" />
          </mxGeometry>
        </mxCell>
        <mxCell id="L9y2QFEIrlvMuw7K1tbd-16" value="Packet 0x505: data_u16[0] set to 0x0070 (Acc + Run + Start)" style="edgeLabel;html=1;align=center;verticalAlign=middle;resizable=0;points=[];fontStyle=1;fontColor=#FF3333;fontSize=14;" parent="L9y2QFEIrlvMuw7K1tbd-15" vertex="1" connectable="0">
          <mxGeometry x="-0.0333" y="-2" relative="1" as="geometry">
            <mxPoint x="2" y="-18" as="offset" />
          </mxGeometry>
        </mxCell>
        <mxCell id="L9y2QFEIrlvMuw7K1tbd-17" value="PRECHARGE SEQUENCE" style="swimlane;whiteSpace=wrap;html=1;rounded=1;fillColor=#f8cecc;strokeColor=#b85450;" parent="WIyWlLk6GJQsqaUBKTNV-1" vertex="1">
          <mxGeometry x="140" y="331" width="440" height="469" as="geometry" />
        </mxCell>
        <mxCell id="L9y2QFEIrlvMuw7K1tbd-5" value="BMU - MEASURE STATE&lt;br&gt;&lt;br&gt;&lt;div&gt;Contactor 3 is also switched on, to connect the Pack+ connection to the vehicle via the precharge resistor.&amp;nbsp; The vehicle will begin precharging.&amp;nbsp;&lt;span style=&quot;background-color: initial;&quot;&gt;After a short time to allow the total pack voltage measurement to stabilise, and the 12V current inrush from the contactor switching to subside, the BMS transitions to the Precharge state.&lt;/span&gt;&lt;/div&gt;&lt;span style=&quot;font-size: medium; text-align: start;&quot;&gt;&lt;/span&gt;" style="swimlane;whiteSpace=wrap;html=1;rounded=1;labelBackgroundColor=none;verticalAlign=top;fontStyle=0" parent="L9y2QFEIrlvMuw7K1tbd-17" vertex="1">
          <mxGeometry x="10" y="171" width="420" height="113" as="geometry">
            <mxRectangle x="170" y="280" width="110" height="30" as="alternateBounds" />
          </mxGeometry>
        </mxCell>
        <mxCell id="L9y2QFEIrlvMuw7K1tbd-6" value="BMU - PRECHARGE STATE&lt;br&gt;&lt;br&gt;&lt;div&gt;&lt;div&gt;The load will now be precharging.&amp;nbsp; The BMS begins a timeout (error) counter (2000ms by default), to avoid a fault situation overheating the precharge resistor, and also begins comparing the total pack voltage and DC bus voltage measurements.&amp;nbsp;&amp;nbsp;&lt;span style=&quot;background-color: initial;&quot;&gt;When they match within a the precharge voltage threshold (20V by default), precharge is regarded as complete and the BMS transitions to the Run state.&lt;/span&gt;&lt;/div&gt;&lt;/div&gt;&lt;span style=&quot;font-size: medium; text-align: start;&quot;&gt;&lt;/span&gt;" style="swimlane;whiteSpace=wrap;html=1;rounded=1;labelBackgroundColor=none;verticalAlign=top;fontStyle=0" parent="L9y2QFEIrlvMuw7K1tbd-17" vertex="1">
          <mxGeometry x="10" y="328" width="420" height="132" as="geometry">
            <mxRectangle x="170" y="280" width="110" height="30" as="alternateBounds" />
          </mxGeometry>
        </mxCell>
        <mxCell id="L9y2QFEIrlvMuw7K1tbd-11" value="" style="endArrow=classic;html=1;rounded=0;exitX=0.5;exitY=1;exitDx=0;exitDy=0;entryX=0.5;entryY=0;entryDx=0;entryDy=0;" parent="L9y2QFEIrlvMuw7K1tbd-17" source="L9y2QFEIrlvMuw7K1tbd-5" target="L9y2QFEIrlvMuw7K1tbd-6" edge="1">
          <mxGeometry width="50" height="50" relative="1" as="geometry">
            <mxPoint x="240" y="364" as="sourcePoint" />
            <mxPoint x="290" y="314" as="targetPoint" />
          </mxGeometry>
        </mxCell>
        <mxCell id="L9y2QFEIrlvMuw7K1tbd-12" value="After automatic delay to stabilise voltage completes" style="edgeLabel;html=1;align=center;verticalAlign=middle;resizable=0;points=[];fontStyle=1;fontColor=#FF3333;fontSize=14;" parent="L9y2QFEIrlvMuw7K1tbd-11" vertex="1" connectable="0">
          <mxGeometry x="-0.1143" y="-1" relative="1" as="geometry">
            <mxPoint as="offset" />
          </mxGeometry>
        </mxCell>
        <mxCell id="L9y2QFEIrlvMuw7K1tbd-18" value="0x505 packet starts being received at &amp;gt; 5hz" style="endArrow=classic;html=1;rounded=0;exitX=0.5;exitY=1;exitDx=0;exitDy=0;entryX=0.5;entryY=0;entryDx=0;entryDy=0;fontStyle=1;fontColor=#FF3333;fontSize=14;" parent="WIyWlLk6GJQsqaUBKTNV-1" source="L9y2QFEIrlvMuw7K1tbd-14" target="L9y2QFEIrlvMuw7K1tbd-2" edge="1">
          <mxGeometry width="50" height="50" relative="1" as="geometry">
            <mxPoint x="400" y="281" as="sourcePoint" />
            <mxPoint x="450" y="231" as="targetPoint" />
            <mxPoint as="offset" />
          </mxGeometry>
        </mxCell>
        <mxCell id="L9y2QFEIrlvMuw7K1tbd-22" value="&lt;font color=&quot;#ff3333&quot; style=&quot;font-size: 14px;&quot;&gt;&lt;b&gt;Failure&lt;/b&gt;&lt;/font&gt;" style="endArrow=classic;html=1;rounded=0;exitX=1;exitY=0.5;exitDx=0;exitDy=0;" parent="WIyWlLk6GJQsqaUBKTNV-1" source="L9y2QFEIrlvMuw7K1tbd-5" edge="1">
          <mxGeometry width="50" height="50" relative="1" as="geometry">
            <mxPoint x="570" y="591" as="sourcePoint" />
            <mxPoint x="740" y="560" as="targetPoint" />
          </mxGeometry>
        </mxCell>
        <mxCell id="L9y2QFEIrlvMuw7K1tbd-24" value="" style="endArrow=classic;html=1;rounded=0;exitX=1;exitY=0.5;exitDx=0;exitDy=0;" parent="WIyWlLk6GJQsqaUBKTNV-1" source="L9y2QFEIrlvMuw7K1tbd-4" edge="1">
          <mxGeometry width="50" height="50" relative="1" as="geometry">
            <mxPoint x="760" y="451" as="sourcePoint" />
            <mxPoint x="740" y="410" as="targetPoint" />
          </mxGeometry>
        </mxCell>
        <mxCell id="L9y2QFEIrlvMuw7K1tbd-33" value="Failure" style="edgeLabel;html=1;align=center;verticalAlign=middle;resizable=0;points=[];fontColor=#FF3333;fontStyle=1;fontSize=15;" parent="L9y2QFEIrlvMuw7K1tbd-24" vertex="1" connectable="0">
          <mxGeometry x="-0.0154" y="-4" relative="1" as="geometry">
            <mxPoint y="-4" as="offset" />
          </mxGeometry>
        </mxCell>
        <mxCell id="L9y2QFEIrlvMuw7K1tbd-28" value="" style="endArrow=classic;html=1;rounded=0;endFill=1;entryX=1;entryY=0.5;entryDx=0;entryDy=0;startArrow=none;startFill=0;exitX=1;exitY=0.5;exitDx=0;exitDy=0;" parent="WIyWlLk6GJQsqaUBKTNV-1" source="L9y2QFEIrlvMuw7K1tbd-39" target="L9y2QFEIrlvMuw7K1tbd-14" edge="1">
          <mxGeometry width="50" height="50" relative="1" as="geometry">
            <mxPoint x="440" y="1196" as="sourcePoint" />
            <mxPoint x="650" y="111" as="targetPoint" />
            <Array as="points">
              <mxPoint x="740" y="1086" />
              <mxPoint x="740" y="140" />
            </Array>
          </mxGeometry>
        </mxCell>
        <mxCell id="L9y2QFEIrlvMuw7K1tbd-32" value="0x505 no longer being sent &amp;gt; 5hz, &lt;br&gt;data_u16[0] set to 0x0000 or 0x0010&amp;nbsp;&lt;br&gt;or BMU error occurs" style="edgeLabel;html=1;align=center;verticalAlign=middle;resizable=0;points=[];fontStyle=1;fontColor=#FF3333;fontSize=14;" parent="L9y2QFEIrlvMuw7K1tbd-28" vertex="1" connectable="0">
          <mxGeometry x="0.3474" y="2" relative="1" as="geometry">
            <mxPoint x="-158" y="647" as="offset" />
          </mxGeometry>
        </mxCell>
        <mxCell id="L9y2QFEIrlvMuw7K1tbd-36" value="&lt;b style=&quot;font-size: 14px;&quot;&gt;&lt;font color=&quot;#ff3333&quot;&gt;Once BMU is in RUN STATE, 0x505: data_u16[0] should be set to &lt;br&gt;0x0030 (Acc + Run) and sent at &amp;gt; 5hz to ensure that the pack &lt;br&gt;does not try to re-engage contactors if a failure occurs&lt;/font&gt;&lt;/b&gt;" style="endArrow=classic;html=1;rounded=0;exitX=0.5;exitY=1;exitDx=0;exitDy=0;entryX=0.5;entryY=0;entryDx=0;entryDy=0;" parent="WIyWlLk6GJQsqaUBKTNV-1" source="L9y2QFEIrlvMuw7K1tbd-8" target="L9y2QFEIrlvMuw7K1tbd-39" edge="1">
          <mxGeometry y="10" width="50" height="50" relative="1" as="geometry">
            <mxPoint x="410" y="1121" as="sourcePoint" />
            <mxPoint x="460" y="1071" as="targetPoint" />
            <mxPoint as="offset" />
          </mxGeometry>
        </mxCell>
        <mxCell id="L9y2QFEIrlvMuw7K1tbd-37" value="&lt;font color=&quot;#ff3333&quot; style=&quot;font-size: 14px;&quot;&gt;&lt;b&gt;Failure&lt;/b&gt;&lt;/font&gt;" style="endArrow=classic;html=1;rounded=0;exitX=1;exitY=0.5;exitDx=0;exitDy=0;" parent="WIyWlLk6GJQsqaUBKTNV-1" source="L9y2QFEIrlvMuw7K1tbd-6" edge="1">
          <mxGeometry width="50" height="50" relative="1" as="geometry">
            <mxPoint x="570" y="791" as="sourcePoint" />
            <mxPoint x="740" y="725" as="targetPoint" />
          </mxGeometry>
        </mxCell>
        <mxCell id="L9y2QFEIrlvMuw7K1tbd-38" value="&lt;b style=&quot;font-size: 14px;&quot;&gt;&lt;font style=&quot;font-size: 14px;&quot; color=&quot;#ff3333&quot;&gt;0x505 no longer&lt;br style=&quot;border-color: var(--border-color);&quot;&gt;&lt;/font&gt;&lt;/b&gt;&lt;span style=&quot;color: rgb(255, 51, 51); font-size: 14px; font-weight: 700;&quot;&gt;being sent &amp;gt; 5hz&amp;nbsp;&lt;/span&gt;&lt;br style=&quot;border-color: var(--border-color); color: rgb(255, 51, 51); font-size: 14px; font-weight: 700;&quot;&gt;&lt;span style=&quot;color: rgb(255, 51, 51); font-size: 14px; font-weight: 700;&quot;&gt;or BMU error occurs&lt;/span&gt;" style="endArrow=classic;html=1;rounded=0;exitX=1;exitY=0.5;exitDx=0;exitDy=0;" parent="WIyWlLk6GJQsqaUBKTNV-1" source="L9y2QFEIrlvMuw7K1tbd-8" edge="1">
          <mxGeometry width="50" height="50" relative="1" as="geometry">
            <mxPoint x="570" y="985.5" as="sourcePoint" />
            <mxPoint x="740" y="910" as="targetPoint" />
          </mxGeometry>
        </mxCell>
        <mxCell id="L9y2QFEIrlvMuw7K1tbd-40" value="" style="group" parent="WIyWlLk6GJQsqaUBKTNV-1" vertex="1" connectable="0">
          <mxGeometry x="314.5" y="1040" width="91" height="91" as="geometry" />
        </mxCell>
        <mxCell id="L9y2QFEIrlvMuw7K1tbd-39" value="" style="ellipse;whiteSpace=wrap;html=1;aspect=fixed;" parent="L9y2QFEIrlvMuw7K1tbd-40" vertex="1">
          <mxGeometry width="91" height="91" as="geometry" />
        </mxCell>
        <mxCell id="L9y2QFEIrlvMuw7K1tbd-35" value="SAFE&lt;br style=&quot;font-size: 14px;&quot;&gt;RUN&lt;br style=&quot;font-size: 14px;&quot;&gt;STATE" style="strokeWidth=2;html=1;shape=mxgraph.flowchart.start_2;whiteSpace=wrap;fillStyle=solid;labelBackgroundColor=none;fillColor=#000000;fontColor=#FFFFFF;fontStyle=1;fontSize=14;" parent="L9y2QFEIrlvMuw7K1tbd-40" vertex="1">
          <mxGeometry x="11" y="11" width="70" height="70" as="geometry" />
        </mxCell>
      </root>
    </mxGraphModel>
  </diagram>
</mxfile>
